<?xml version="1.0" encoding="UTF-8" standalone="no"?>
<svg xmlns:svg="http://www.w3.org/2000/svg" xmlns="http://www.w3.org/2000/svg" xmlns:xlink="http://www.w3.org/1999/xlink" id="svg8" version="1.1" viewBox="0 0 24 24" height="24" width="24">
  <defs id="defs2">
    <linearGradient id="linearGradient923">
      <stop style="stop-color:#b9b7b6;stop-opacity:0" offset="0" id="stop917" />
      <stop id="stop919" offset="0.875" style="stop-color:#b9b7b6;stop-opacity:0" />
      <stop style="stop-color:#b9b7b6;stop-opacity:1" offset="1" id="stop921" />
    </linearGradient>
    <linearGradient id="linearGradient888">
      <stop id="stop884" offset="0" style="stop-color:#fcfcfc;stop-opacity:0" />
      <stop style="stop-color:#fcfbfb;stop-opacity:0" offset="0.81668121" id="stop892" />
      <stop id="stop886" offset="1" style="stop-color:#fcfbfb;stop-opacity:1" />
    </linearGradient>
    <radialGradient gradientUnits="userSpaceOnUse" gradientTransform="matrix(1.3161829,-1.3161827,1.1083644,1.1083645,-18.879924,12.708462)" r="7.217842" fy="13.610803" fx="12" cy="13.610803" cx="12" id="radialGradient890" xlink:href="#linearGradient888" />
    <radialGradient r="7.217842" fy="13.610803" fx="12" cy="13.610803" cx="12" gradientTransform="matrix(-1.2469104,1.2469101,-1.1083642,-1.1083646,42.048654,12.12281)" gradientUnits="userSpaceOnUse" id="radialGradient915" xlink:href="#linearGradient923" />
  </defs>
  <g style="display:inline" id="layer2">
    <circle r="11.5" cy="12" cx="12" id="path880" style="display:inline;opacity:1;fill:#f3f0f1;fill-opacity:1;stroke:#82817e;stroke-width:1;stroke-miterlimit:4;stroke-dasharray:none;stroke-opacity:1" />
    <path d="M 1.0008209,12.134388 A 11,11 0 0 1 5.4955936,3.1291095 11,11 0 0 1 15.435684,1.5503074 L 12,12 Z" style="display:inline;opacity:1;fill:url(#radialGradient890);fill-opacity:1;stroke:none;stroke-width:1;stroke-miterlimit:4;stroke-dasharray:none;stroke-opacity:1" id="circle882" />
    <path id="path913" style="display:inline;opacity:1;fill:url(#radialGradient915);fill-opacity:1;stroke:none;stroke-width:1;stroke-miterlimit:4;stroke-dasharray:none;stroke-opacity:1" d="M 22.269385,8.0579529 A 11,11 0 0 1 18.8251,20.626588 11,11 0 0 1 5.8012131,21.087081 L 12,12 Z" />
    <path d="M 11.233724,17.24935 V 12.802084 L 7.1875,6.7506514 H 8.8776042 L 10.947266,9.9160161 Q 11.520182,10.804037 12.014323,11.692058 12.486979,10.86849 13.160156,9.8372401 L 15.194011,6.7506514 H 16.8125 L 12.623047,12.802084 V 17.24935 Z" id="path830" style="fill:#a0a4a9;fill-opacity:1;stroke:none" />
  </g>
</svg>
