<?xml version="1.0" encoding="UTF-8" standalone="no"?>
<svg
   version="1.2"
   viewBox="0 0 66.710205 16"
   width="66.710205"
   height="16"
   id="svg1"
   sodipodi:docname="Ds-Button-Select.svg"
   inkscape:version="1.4.3 (0d15f75, 2025-12-25)"
   xmlns:inkscape="http://www.inkscape.org/namespaces/inkscape"
   xmlns:sodipodi="http://sodipodi.sourceforge.net/DTD/sodipodi-0.dtd"
   xmlns="http://www.w3.org/2000/svg"
   xmlns:svg="http://www.w3.org/2000/svg">
  <defs
     id="defs1" />
  <sodipodi:namedview
     id="namedview1"
     pagecolor="#ffffff"
     bordercolor="#000000"
     borderopacity="0.25"
     inkscape:showpageshadow="2"
     inkscape:pageopacity="0.0"
     inkscape:pagecheckerboard="0"
     inkscape:deskcolor="#d1d1d1"
     inkscape:zoom="6.1559885"
     inkscape:cx="26.884391"
     inkscape:cy="19.249549"
     inkscape:window-width="1920"
     inkscape:window-height="1009"
     inkscape:window-x="-8"
     inkscape:window-y="-8"
     inkscape:window-maximized="1"
     inkscape:current-layer="svg1" />
  <style
     id="style1">
		.s0 { fill: #dfdfdf;stroke: #808080;stroke-miterlimit:100;stroke-width: 1.5 } 
		.s1 { fill: #373737 } 
	</style>
  <path
     id="Shape 1"
     fill-rule="evenodd"
     class="s0"
     d="M 8,15.510204 C 3.8465306,15.510204 0.48979592,12.153469 0.48979592,8 0.48979592,3.8465306 3.8465306,0.48979592 8,0.48979592 c 4.153469,0 7.510204,3.35673468 7.510204,7.51020408 0,4.153469 -3.356735,7.510204 -7.510204,7.510204 z" />
  <path
     id="SELECT"
     class="s1"
     aria-label="SELECT"
     d="M 25.893878,3.6244898 V 4.8 Q 25.17551,4.4734694 24.587755,4.277551 23.934694,4.1469388 23.346939,4.1469388 q -1.044898,0 -1.567347,0.3918367 -0.587755,0.3918367 -0.587755,1.1102041 0,0.6530612 0.391836,0.9795918 0.391837,0.2612245 1.371429,0.4571429 l 0.783674,0.1959184 q 1.371428,0.2612244 2.089795,0.9142857 0.653062,0.6530612 0.653062,1.8285716 0,1.306122 -0.914286,2.02449 -0.914286,0.718367 -2.677551,0.718367 -0.653061,0 -1.371429,-0.195918 Q 20.8,12.440816 19.95102,12.179592 v -1.306123 q 0.783674,0.391837 1.502041,0.653062 0.783674,0.195918 1.436735,0.195918 1.110204,0 1.697959,-0.391837 0.587755,-0.457143 0.587755,-1.240816 0,-0.6530613 -0.457143,-1.044898 Q 24.326531,8.6530612 23.346939,8.4571429 L 22.628571,8.3265306 Q 21.191837,8 20.538776,7.4122449 19.95102,6.8244898 19.95102,5.7795918 q 0,-1.2408163 0.84898,-1.9591836 0.84898,-0.7183674 2.416327,-0.7183674 0.653061,0 1.306122,0.1306123 0.718367,0.1306122 1.371429,0.3918367 z m 2.285714,8.9469392 V 3.2979592 h 5.877551 v 1.0448979 h -4.636735 v 2.7428572 h 4.440816 v 1.0448979 h -4.440816 v 3.3959188 h 4.767347 v 1.044898 z m 7.836735,0 V 3.2979592 h 1.240816 v 8.2285718 h 4.506122 v 1.044898 z m 7.183673,0 V 3.2979592 h 5.877551 v 1.0448979 h -4.636735 v 2.7428572 h 4.440817 v 1.0448979 h -4.440817 v 3.3959188 h 4.767347 v 1.044898 z M 57.959184,4.0163265 V 5.322449 Q 57.371429,4.7346939 56.587755,4.4734694 55.934694,4.1469388 55.085714,4.1469388 q -1.567347,0 -2.416326,0.9795918 -0.84898,0.9795918 -0.84898,2.8081633 0,1.8285714 0.84898,2.8081631 0.848979,0.979592 2.416326,0.979592 0.84898,0 1.502041,-0.326531 0.783674,-0.261224 1.371429,-0.848979 v 1.306122 q -0.653062,0.457143 -1.371429,0.653061 -0.718367,0.261225 -1.567347,0.261225 -2.089796,0 -3.330612,-1.306123 -1.17551,-1.306122 -1.17551,-3.5265301 0,-2.2204082 1.17551,-3.5265306 1.240816,-1.3061225 3.330612,-1.3061225 0.84898,0 1.567347,0.2612245 0.718367,0.1959184 1.371429,0.6530612 z m 0.914285,0.3265306 V 3.2979592 h 7.836735 V 4.3428571 H 63.444898 V 12.571429 H 62.204082 V 4.3428571 Z"
     style="stroke-width:0.653061" />
</svg>
