<?xml version="1.0" encoding="UTF-8" standalone="no"?>
<svg
   version="1.2"
   viewBox="0 0 58.87347 16"
   width="58.87347"
   height="16"
   id="svg1"
   sodipodi:docname="Ds-Button-Start.svg"
   inkscape:version="1.4.3 (0d15f75, 2025-12-25)"
   xmlns:inkscape="http://www.inkscape.org/namespaces/inkscape"
   xmlns:sodipodi="http://sodipodi.sourceforge.net/DTD/sodipodi-0.dtd"
   xmlns="http://www.w3.org/2000/svg"
   xmlns:svg="http://www.w3.org/2000/svg">
  <defs
     id="defs1" />
  <sodipodi:namedview
     id="namedview1"
     pagecolor="#ffffff"
     bordercolor="#000000"
     borderopacity="0.25"
     inkscape:showpageshadow="2"
     inkscape:pageopacity="0.0"
     inkscape:pagecheckerboard="0"
     inkscape:deskcolor="#d1d1d1"
     inkscape:zoom="19.733333"
     inkscape:cx="45.228041"
     inkscape:cy="12.238176"
     inkscape:window-width="1920"
     inkscape:window-height="1009"
     inkscape:window-x="-8"
     inkscape:window-y="-8"
     inkscape:window-maximized="1"
     inkscape:current-layer="svg1" />
  <style
     id="style1">
		.s0 { fill: #dfdfdf;stroke: #808080;stroke-miterlimit:100;stroke-width: 1.5 } 
		.s1 { fill: #373737 } 
	</style>
  <path
     id="Shape 1"
     fill-rule="evenodd"
     class="s0"
     d="M 8,15.510204 C 3.8465306,15.510204 0.48979592,12.153469 0.48979592,8 0.48979592,3.8465306 3.8465306,0.48979592 8,0.48979592 c 4.153469,0 7.510204,3.35673468 7.510204,7.51020408 0,4.153469 -3.356735,7.510204 -7.510204,7.510204 z" />
  <path
     id="START"
     class="s1"
     aria-label="START"
     d="M 26.546939,3.6244898 V 4.8 Q 25.828571,4.4734694 25.240816,4.277551 24.587755,4.1469388 24,4.1469388 q -1.044898,0 -1.567347,0.3918367 -0.587755,0.3918367 -0.587755,1.1102041 0,0.6530612 0.391837,0.9795918 0.391836,0.2612245 1.371428,0.4571429 l 0.783674,0.1959184 q 1.371428,0.2612244 2.089796,0.9142857 0.653061,0.6530612 0.653061,1.8285716 0,1.306122 -0.914286,2.02449 -0.914286,0.718367 -2.677551,0.718367 -0.653061,0 -1.371428,-0.195918 -0.718368,-0.130613 -1.567347,-0.391837 v -1.306123 q 0.783673,0.391837 1.50204,0.653062 0.783674,0.195918 1.436735,0.195918 1.110204,0 1.697959,-0.391837 0.587755,-0.457143 0.587755,-1.240816 0,-0.6530613 -0.457142,-1.044898 Q 24.979592,8.6530612 24,8.4571429 L 23.281633,8.3265306 Q 21.844898,8 21.191837,7.4122449 20.604082,6.8244898 20.604082,5.7795918 q 0,-1.2408163 0.848979,-1.9591836 0.84898,-0.7183674 2.416327,-0.7183674 0.653061,0 1.306122,0.1306123 0.718368,0.1306122 1.371429,0.3918367 z m 0.979592,0.7183673 V 3.2979592 h 7.90204 V 4.3428571 H 32.097959 V 12.571429 H 30.857143 V 4.3428571 Z M 40.130612,9.1755102 38.432653,4.5387755 36.734694,9.1755102 Z m -5.942857,3.3959188 3.526531,-9.2734698 h 1.436734 l 3.526531,9.2734698 h -1.306122 l -0.84898,-2.351021 h -4.179592 l -0.848979,2.351021 z M 48.881633,8.1959184 q 0.391836,0.1306122 0.783673,0.5877551 0.391837,0.4571428 0.783674,1.2408165 l 1.240816,2.546939 H 50.383673 L 49.142857,10.220408 Q 48.685714,9.2408163 48.293878,8.9795918 47.836735,8.6530612 47.118367,8.6530612 H 45.746939 V 12.571429 H 44.506122 V 3.2979592 h 2.808164 q 1.567347,0 2.35102,0.6530612 0.783674,0.6530612 0.783674,2.0244898 0,0.8489796 -0.391837,1.4367347 Q 49.665306,8 48.881633,8.1959184 Z M 47.314286,4.3428571 h -1.567347 v 3.2653062 h 1.567347 q 0.914285,0 1.371428,-0.3918368 0.457143,-0.4571428 0.457143,-1.2408163 0,-0.8489796 -0.457143,-1.2408163 -0.457143,-0.3918368 -1.371428,-0.3918368 z m 3.722449,0 V 3.2979592 h 7.836734 V 4.3428571 H 55.608163 V 12.571429 H 54.302041 V 4.3428571 Z"
     style="stroke-width:0.653061" />
</svg>
