<?xml version="1.0" encoding="UTF-8" standalone="no"?>
<svg xmlns:svg="http://www.w3.org/2000/svg" xmlns="http://www.w3.org/2000/svg" xmlns:xlink="http://www.w3.org/1999/xlink" id="svg8" version="1.1" viewBox="0 0 24 24" height="24" width="24">
  <defs id="defs2">
    <linearGradient id="linearGradient823">
      <stop id="stop819" offset="0" style="stop-color:#b4b1b1;stop-opacity:1" />
      <stop id="stop821" offset="1" style="stop-color:#b4b1b1;stop-opacity:0.00416667" />
    </linearGradient>
    <radialGradient r="0.49992386" fy="8.0000763" fx="8" cy="8.0000763" cx="8" gradientTransform="matrix(0,3.0009143,-3.0013712,0,32.511199,-15.507543)" gradientUnits="userSpaceOnUse" id="radialGradient912" xlink:href="#linearGradient823" />
    <linearGradient y2="4.5" x2="9" y1="4.5" x1="8" gradientTransform="matrix(1.5,0,0,1.0714285,-3.4999998,-0.07142856)" gradientUnits="userSpaceOnUse" id="linearGradient952" xlink:href="#linearGradient823" />
  </defs>
  <g style="display:inline" id="layer2">
    <path id="rect892" d="M 8,0.5 V 8 H 0.5 V 16 H 8 V 23.5 H 16 V 16 H 23.5 V 8 H 16 V 0.5 Z" style="display:inline;opacity:1;fill:#f2f1f1;fill-opacity:1;stroke:#1e1916;stroke-width:1;stroke-linecap:butt;stroke-miterlimit:4;stroke-dasharray:none;stroke-opacity:1" />
    <path d="M 2.5,12 H 7 M 12,21.5 V 17 M 21.5,12 H 17 M 12,2.5 V 7" style="display:inline;fill:none;stroke:#9da3ae;stroke-width:1;stroke-linecap:butt;stroke-linejoin:miter;stroke-miterlimit:4;stroke-dasharray:none;stroke-opacity:1" id="path926" />
    <rect y="1" x="8.5" height="7.5" width="1.5" id="rect817" style="opacity:1;fill:url(#linearGradient952);fill-opacity:1;stroke:none;stroke-width:1.03509831;stroke-linecap:butt;stroke-miterlimit:4;stroke-dasharray:none;stroke-opacity:1" />
    <use transform="matrix(-1,0,0,1,24,0)" height="100%" width="100%" id="use827" xlink:href="#rect817" y="0" x="0" />
    <use transform="rotate(90,4.75,4.75)" height="100%" width="100%" id="use829" xlink:href="#rect817" y="0" x="0" />
    <use transform="rotate(90,12,12)" height="100%" width="100%" id="use831" xlink:href="#rect817" y="0" x="0" />
    <use transform="rotate(-90,12,12)" height="100%" width="100%" id="use833" xlink:href="#rect817" y="0" x="0" />
    <use transform="rotate(-90,19.25,4.75)" height="100%" width="100%" id="use835" xlink:href="#rect817" y="0" x="0" />
    <use transform="translate(0,14.5)" height="100%" width="100%" id="use837" xlink:href="#rect817" y="0" x="0" />
    <use transform="matrix(-1,0,0,1,24,14.5)" height="100%" width="100%" id="use839" xlink:href="#rect817" y="0" x="0" />
    <path d="M 10,8.5259537 A 1.5002285,1.5002285 0 0 1 8.5,9.9999996 L 8.5,8.4997711 Z" id="path841" style="opacity:1;fill:url(#radialGradient912);fill-opacity:1;stroke:none;stroke-width:1;stroke-linecap:butt;stroke-miterlimit:4;stroke-dasharray:none;stroke-opacity:1" />
    <use transform="rotate(90,12,12)" height="100%" width="100%" id="use851" xlink:href="#path841" y="0" x="0" />
    <use transform="rotate(-90,12.000114,11.999886)" height="100%" width="100%" id="use853" xlink:href="#path841" y="0" x="0" />
    <use transform="rotate(-180,12,11.999886)" height="100%" width="100%" id="use855" xlink:href="#path841" y="0" x="0" />
  </g>
</svg>
